<?xml version="1.0" encoding="utf-8"?>
<svg width="293" height="436" viewBox="0 0 293 436" fill="none" xmlns="http://www.w3.org/2000/svg">
  <rect width="169" height="169" transform="matrix(0.866025 0.5 -0.866025 0.5 146.358 0)" fill="#797979"/>
  <rect width="169" height="267.399" transform="matrix(0.866025 0.5 -2.20305e-08 1 -1.52588e-05 84)" fill="#504B4B"/>
  <rect width="169" height="267.399" transform="matrix(0.866025 -0.5 2.20305e-08 1 146 168.5)" fill="#A9A9A9"/>
  <circle cx="22.5" cy="22.5" r="22.5" transform="matrix(0.866025 -0.5 2.20305e-08 1 206 256.5)" fill="#656565"/>
  <circle cx="14.3323" cy="14.3323" r="14.3323" transform="matrix(0.866025 -0.5 2.20305e-08 1 213.086 260.591)" fill="url(#paint1_linear_9_96)"/>
  <path d="M225.725 253.501L225.725 262.908" stroke="white" stroke-opacity="0.5" stroke-width="0.5"/>
  <path d="M230.191 252.009L227.18 262.488" stroke="white" stroke-opacity="0.5" stroke-width="0.5"/>
  <path d="M234.241 252.514L228.481 262.491" stroke="white" stroke-opacity="0.5" stroke-width="0.5"/>
  <path d="M236.88 255.447L229.398 263.489" stroke="white" stroke-opacity="0.5" stroke-width="0.5"/>
  <path d="M225.725 281.722L225.725 272.315" stroke="white" stroke-opacity="0.5" stroke-width="0.5"/>
  <path d="M221.159 283.446L224.17 272.967" stroke="white" stroke-opacity="0.5" stroke-width="0.5"/>
  <path d="M216.788 283.02L222.548 273.043" stroke="white" stroke-opacity="0.5" stroke-width="0.5"/>
  <path d="M214.124 280.121L221.605 272.079" stroke="white" stroke-opacity="0.5" stroke-width="0.5"/>
  <path d="M229.559 265.675L237.705 260.972" stroke="white" stroke-opacity="0.5" stroke-width="0.5"/>
  <path d="M229.195 267.565L236.765 266.671" stroke="white" stroke-opacity="0.5" stroke-width="0.5"/>
  <path d="M228.481 269.617L234.241 272.943" stroke="white" stroke-opacity="0.5" stroke-width="0.5"/>
  <path d="M227.118 271.427L230.342 278.205" stroke="white" stroke-opacity="0.5" stroke-width="0.5"/>
  <path d="M221.412 270.379L213.266 275.082" stroke="white" stroke-opacity="0.5" stroke-width="0.5"/>
  <path d="M221.625 268.459L214.056 269.353" stroke="white" stroke-opacity="0.5" stroke-width="0.5"/>
  <path d="M222.548 265.916L216.788 262.591" stroke="white" stroke-opacity="0.5" stroke-width="0.5"/>
  <path d="M223.886 264.14L220.662 257.363" stroke="white" stroke-opacity="0.5" stroke-width="0.5"/>
  <circle cx="8.95769" cy="8.95769" r="8.95769" transform="matrix(0.866025 -0.5 2.20305e-08 1 217.691 263.25)" fill="black"/>
  <circle cx="6.95455" cy="6.95455" r="6.95455" transform="matrix(0.866025 -0.5 2.20305e-08 1 220.526 264.886)" fill="#3D3D3D"/>
  <defs>
    <linearGradient id="paint1_linear_9_96" x1="-1.49513" y1="4.38732" x2="28.7776" y2="23.001" gradientUnits="userSpaceOnUse">
      <stop stop-color="#C1B9B9"/>
      <stop offset="1"/>
    </linearGradient>
  </defs>
</svg>